<svg width="80" height="30" viewBox="0 0 80 30" fill="none" xmlns="http://www.w3.org/2000/svg">
<g clip-path="url(#clip0_773_8245)">
<path d="M36.6016 26.4283H38.6524V18.6925H36.6016V26.4283ZM36.6016 17.4862H38.6524V15.6465H36.6016V17.4862Z" fill="#344054"/>
<path d="M39.9746 28.9626H42.0254V25.5547H42.0556C42.4929 26.2181 43.2016 26.6555 44.2873 26.6555C46.2778 26.6555 47.635 25.0721 47.635 22.5689C47.635 20.1562 46.3231 18.4824 44.2723 18.4824C43.2167 18.4824 42.4929 18.98 41.9953 19.6586H41.95V18.6935H39.9746V28.9626ZM43.8501 24.9515C42.6286 24.9515 41.9802 24.0317 41.9802 22.6292C41.9802 21.242 42.4929 20.1411 43.7746 20.1411C45.0413 20.1411 45.554 21.1665 45.554 22.6292C45.554 24.092 44.8906 24.9515 43.8501 24.9515Z" fill="#344054"/>
<path d="M51.7256 26.6555C53.6557 26.6555 54.9827 25.7205 54.9827 24.1673C54.9827 22.3578 53.5502 21.9959 52.2533 21.7245C51.1525 21.4983 50.1271 21.4379 50.1271 20.7745C50.1271 20.2166 50.6549 19.9149 51.4541 19.9149C52.3287 19.9149 52.8565 20.2166 52.9469 21.0459H54.8018C54.6509 19.4927 53.52 18.4824 51.4843 18.4824C49.72 18.4824 48.3326 19.2816 48.3326 20.9554C48.3326 22.6443 49.6898 23.0213 51.0771 23.2928C52.1327 23.5038 53.1128 23.5793 53.1128 24.3182C53.1128 24.861 52.6001 25.2078 51.6953 25.2078C50.7755 25.2078 50.1422 24.8158 50.0065 23.9261H48.1064C48.2271 25.5698 49.4787 26.6555 51.7256 26.6555Z" fill="#344054"/>
<path d="M62.7691 26.4291V18.6934H60.7183V23.1568C60.7183 24.1822 60.1302 24.9061 59.1651 24.9061C58.2906 24.9061 57.8834 24.4084 57.8834 23.5036V18.6934H55.8477V23.8505C55.8477 25.5394 56.8128 26.6402 58.5318 26.6402C59.6175 26.6402 60.2207 26.233 60.7485 25.5243H60.7938V26.4291H62.7691Z" fill="#344054"/>
<path d="M64.0957 26.4293H66.1466V21.9356C66.1466 20.9102 66.7045 20.2467 67.5339 20.2467C68.2878 20.2467 68.7252 20.699 68.7252 21.5737V26.4293H70.776V21.9356C70.776 20.9102 71.3037 20.2467 72.1632 20.2467C72.9172 20.2467 73.3545 20.699 73.3545 21.5737V26.4293H75.4053V21.2269C75.4053 19.538 74.4855 18.4824 72.8569 18.4824C71.8767 18.4824 71.0625 18.9951 70.5347 19.8395H70.5045C70.1275 19.0253 69.3434 18.4824 68.3632 18.4824C67.2926 18.4824 66.5386 19.0253 66.1164 19.734H66.0711V18.6935H64.0957V26.4293Z" fill="#344054"/>
<path d="M36.6318 13.1783H38.6826V2.39648H36.6318V13.1783Z" fill="#344054"/>
<path d="M43.6976 13.4055C46.0952 13.4055 47.7389 11.6261 47.7389 9.31894C47.7389 7.01179 46.0952 5.23242 43.6976 5.23242C41.3 5.23242 39.6562 7.01179 39.6562 9.31894C39.6562 11.6261 41.3 13.4055 43.6976 13.4055ZM43.6976 11.8372C42.4309 11.8372 41.7373 10.8269 41.7373 9.31894C41.7373 7.81099 42.4309 6.7856 43.6976 6.7856C44.9492 6.7856 45.6579 7.81099 45.6579 9.31894C45.6579 10.8269 44.9492 11.8372 43.6976 11.8372Z" fill="#344054"/>
<path d="M52.1004 15.8182C53.2465 15.8182 54.2417 15.5468 54.8901 14.9436C55.4631 14.4158 55.81 13.6769 55.81 12.5912V5.44353H53.8345V6.25782H53.8044C53.3369 5.6094 52.6282 5.23242 51.6631 5.23242C49.7028 5.23242 48.3154 6.71021 48.3154 9.01736C48.3154 11.3547 50.0044 12.7118 51.7234 12.7118C52.7036 12.7118 53.2917 12.3198 53.7441 11.8071H53.7893V12.6515C53.7893 13.707 53.2314 14.265 52.0702 14.265C51.1202 14.265 50.683 13.888 50.5171 13.4055H48.4813C48.6925 14.9134 49.9893 15.8182 52.1004 15.8182ZM52.0702 11.0682C51.0147 11.0682 50.321 10.2991 50.321 8.98721C50.321 7.69039 51.0147 6.87608 52.0552 6.87608C53.2917 6.87608 53.8948 7.84114 53.8948 8.97214C53.8948 10.1181 53.3671 11.0682 52.0702 11.0682Z" fill="#344054"/>
<path d="M60.7942 13.4055C63.1918 13.4055 64.8355 11.6261 64.8355 9.31894C64.8355 7.01179 63.1918 5.23242 60.7942 5.23242C58.3966 5.23242 56.7529 7.01179 56.7529 9.31894C56.7529 11.6261 58.3966 13.4055 60.7942 13.4055ZM60.7942 11.8372C59.5276 11.8372 58.8339 10.8269 58.8339 9.31894C58.8339 7.81099 59.5276 6.7856 60.7942 6.7856C62.0458 6.7856 62.7546 7.81099 62.7546 9.31894C62.7546 10.8269 62.0458 11.8372 60.7942 11.8372Z" fill="#344054"/>
<path d="M66.6338 10.2233H75.5004V8.45898H66.6338V10.2233Z" fill="#344054"/>
<path d="M76.1504 17.3783C76.1504 17.0313 76.4316 16.75 76.7789 16.75H78.0351C78.3824 16.75 78.6636 17.0313 78.6636 17.3783C78.6636 17.7253 78.3824 18.0066 78.0351 18.0066H76.7789C76.4316 18.0066 76.1504 17.7253 76.1504 17.3783Z" fill="#344054"/>
<path fill-rule="evenodd" clip-rule="evenodd" d="M15.8916 0C24.1759 0 30.8916 6.71572 30.8916 15C30.8916 23.2843 24.1759 30 15.8916 30C7.60733 30 0.891602 23.2843 0.891602 15C0.891602 6.71572 7.60733 0 15.8916 0ZM15.3494 1.12244C13.6382 1.36327 12.0088 2.73831 10.7439 5.03805C10.377 5.70512 10.0459 6.4421 9.75742 7.23783C11.4773 6.80563 13.3666 6.55082 15.3494 6.5114V1.12244ZM8.4897 7.5981C8.84842 6.47219 9.28732 5.4363 9.7938 4.51549C10.4208 3.37544 11.1649 2.39096 12.0034 1.63483C7.4442 2.95892 3.85052 6.55259 2.52643 11.1118C3.28256 10.2733 4.26705 9.5292 5.40709 8.9022C6.3279 8.39573 7.36378 7.95683 8.4897 7.5981ZM8.1294 8.86583C7.69722 10.5857 7.44242 12.475 7.40301 14.4578H2.01404C2.25487 12.7465 3.62991 11.1171 5.92965 9.8523C6.59673 9.4854 7.3337 9.15435 8.1294 8.86583ZM8.4876 14.4578C8.53237 12.294 8.84385 10.2626 9.35925 8.46765C11.1541 7.95225 13.1857 7.6407 15.3494 7.59593V9.9381C14.5422 12.0047 12.8958 13.6509 10.8292 14.4578H8.4876ZM7.40301 15.5422H2.01404C2.25487 17.2535 3.62991 18.8828 5.92965 20.1477C6.59673 20.5146 7.3337 20.8456 8.1294 21.1342C7.69722 19.4143 7.44242 17.525 7.40301 15.5422ZM9.35925 21.5324C8.84385 19.7374 8.53237 17.706 8.4876 15.5422H10.8292C12.8958 16.3491 14.5423 17.9953 15.3494 20.0619V22.4041C13.1857 22.3593 11.1541 22.0478 9.35925 21.5324ZM8.4897 22.4019C7.36378 22.0432 6.3279 21.6043 5.40709 21.0978C4.26705 20.4708 3.28256 19.7267 2.52643 18.8882C3.85052 23.4474 7.4442 27.0411 12.0034 28.3652C11.1649 27.609 10.4208 26.6246 9.7938 25.4845C9.28732 24.5637 8.84842 23.5278 8.4897 22.4019ZM15.3494 28.8775C13.6382 28.6367 12.0088 27.2617 10.7439 24.962C10.377 24.2949 10.0459 23.5579 9.75742 22.7622C11.4773 23.1943 13.3666 23.4492 15.3494 23.4886V28.8775ZM19.7798 28.3652C20.6182 27.609 21.3624 26.6246 21.9895 25.4845C22.4959 24.5637 22.9348 23.5278 23.2935 22.4019C24.4194 22.0432 25.4553 21.6043 26.3761 21.0978C27.5161 20.4708 28.5007 19.7267 29.2567 18.8882C27.9327 23.4474 24.339 27.0411 19.7798 28.3652ZM22.0258 22.7622C21.7372 23.5579 21.4062 24.2949 21.0393 24.962C19.7745 27.2617 18.145 28.6367 16.4338 28.8775V23.4886C18.4165 23.4492 20.3059 23.1943 22.0258 22.7622ZM23.6538 21.1342C24.4495 20.8456 25.1865 20.5146 25.8535 20.1477C28.1533 18.8828 29.5283 17.2535 29.7691 15.5422H24.3802C24.3408 17.525 24.0859 19.4143 23.6538 21.1342ZM23.2957 15.5422C23.2509 17.706 22.9393 19.7374 22.4239 21.5324C20.629 22.0478 18.5976 22.3593 16.4338 22.4041V20.0636C17.2407 17.9963 18.8875 16.3493 20.9547 15.5422H23.2957ZM24.3802 14.4578H29.7691C29.5283 12.7465 28.1533 11.1171 25.8535 9.8523C25.1865 9.4854 24.4495 9.15435 23.6538 8.86583C24.0859 10.5857 24.3408 12.475 24.3802 14.4578ZM22.4239 8.46765C22.9393 10.2626 23.2509 12.294 23.2957 14.4578H20.9547C18.8875 13.6507 17.2407 12.0037 16.4338 9.93637V7.59593C18.5976 7.6407 20.629 7.95225 22.4239 8.46765ZM23.2935 7.5981C24.4194 7.95683 25.4553 8.39573 26.3761 8.9022C27.5161 9.5292 28.5007 10.2733 29.2567 11.1118C27.9327 6.55259 24.339 2.95892 19.7798 1.63483C20.6182 2.39096 21.3624 3.37544 21.9895 4.51549C22.4959 5.4363 22.9348 6.47219 23.2935 7.5981ZM16.4338 1.12244C18.145 1.36327 19.7745 2.73831 21.0393 5.03805C21.4062 5.70513 21.7372 6.4421 22.0258 7.23783C20.3059 6.80563 18.4165 6.55082 16.4338 6.5114V1.12244Z" fill="#344054"/>
</g>
<defs>
<clipPath id="clip0_773_8245">
<rect width="78.75" height="30" fill="white" transform="translate(0.5)"/>
</clipPath>
</defs>
</svg>
